<?xml version="1.0" encoding="utf-8"?>
<!-- Generator: Adobe Illustrator 25.3.1, SVG Export Plug-In . SVG Version: 6.00 Build 0)  -->
<svg version="1.1" id="图层_1" xmlns="http://www.w3.org/2000/svg" xmlns:xlink="http://www.w3.org/1999/xlink" x="0px" y="0px"
	 viewBox="0 0 738.7 268.9" style="enable-background:new 0 0 738.7 268.9;" xml:space="preserve">
<style type="text/css">
	.st0{opacity:0.7;}
	.st1{fill:none;}
</style>
<g id="图层_2_1_">
	<g id="RU" class="st0">
		<path class="st1" d="M737.8,105L737.8,105c-1.3-0.5-5.6-3.4-6.7-5s-6.2-2.4-6.2-1.6s-1.7-0.2-2.1-1.1s-5.8-1.1-5.9-0.1
			s1.3,1.1,2.1,2.2s-1.1,1.8-0.7,3s-2-0.6-2.9-1.3s-0.5-3.4-0.2-4.8s-1.5-1.1-1.8-2.5s-6.2-4.3-8.8-5.4s-5.8-2.1-6.7-3.5
			s-5.4-1.6-7.2-3.4s-9.4-5.3-12.7-5.5s-2.5-2.1-4.2-1.8c-3.6,0.2-7.1,0-10.7-0.4c-2.2-0.3-2.6,1.3-4.2,0.7s-9.5-3.7-10.5-2.5
			s-0.5,2.7-1.5,3s0,1.7,2.2,3.8s0.9,3.7-1.1,4.6s-5.2-0.8-6.2-2.5s-3.8-0.9-4.4-3s0.8-2.4,2.1-1.3c0.8,0.7,2.1,0.7,2.8-0.1
			c0.3-0.3,0.5-0.8,0.5-1.2c0.2-1.5-3.6-2.6-5.7-2.5s-3.2,3.2-5.4,4.4s-10.5-0.5-11.3-1.3s-12.5,0-13.7,0.8s-0.3,4.1-0.9,4.4
			s-1.2-3.8-1.2-4.6s-1.4-1.3-3.5-1.3s-3.3-0.1-2.4-1s-0.8-1.8,0.8-3s-3-4.9-7.4-6.7s-14.5-0.8-17.2,0.1c-2.7,0.9-8,0.6-10.6,0.6
			s-0.5-1.1-1.2-2.3s-5.1-2.8-5.7-1.7s-1.7,0-1.7-0.8s-4.1-2.3-5.7-2s-2.3-1.5-0.5-1.5s5.1,0.4,3.7-1.8s-13.5-3-14.6-2.5
			s-0.1,2-2.7,4.6s-5.2,0.8-4.8-0.4s3.5-1,3.5-2.3s-4.4-0.6-5.1-1.6s0.9-1.8,2.5-1.3s4.4,0.8,4.6,0s-1.7-0.9-4.4-1.4
			s-9.2-2.1-12.6-1.8s-5-1.3-6.8-1.5s-1.9,1-1,2.2c0.9,1.2-1.8,1.8-4,1.5s-5.4,1.3-4.1,3s2.5-0.5,3.6,0.1s-2.8,1.8-1.2,2.5
			s1.3,2.4,1.4,3.2s-2.7,1.3-3.7,0s-2.4-0.1-4.3-0.2s-3.3,0.8-1.3,1s2.7,1.6,0,1.9s-2-2.6-3.6-2.2s-5.1-1.3-7-1.3s-2.7,1.6-5.2,1.9
			s-5.8-1.3-6.8-2.7s-1.3-1.8-2.5-0.2s-1.3,4.7-2.5,4.9s-1.7,3-2.9,3.7s-1.3-1.1-2.8-0.9s-6.5-5-6.8-6.4s-3.3-4.3-4.1-4.8
			s0.8-0.8,1.8,0.1c0.9,0.8,2.2,1,3.3,0.3c1-0.6,0.9-3.2-0.9-3.2s-1.1-1.6-0.2-1.9s-2-3-0.9-3.3s0.6-1.5-0.9-1.7s-3-1.5-3.1-2.2
			s-6.3-1-6,0.1s-2,0.8-1.7-0.1s-2.2-0.6-5.2-1.5s-3-3-4-3.2s-0.7,3-2.1,2.3c-0.8-0.5-1.9-0.1-2.3,0.7c-0.3,0.6-0.3,1.2,0.1,1.7
			c0.8,1.8,0.1,2.1-0.1,3.6s-0.9,0.8-2.7,0.2s-1.7,1.5-5.5,0.6s-5.4,0.1-6.1-1.2s-1.8-1.4-1.9-0.3s-5.9,0.6-6.4-0.9s1-1.8,1.9-2.2
			s-0.9-1-4.1-0.8s-5.2-1.7-8.4-1.3s-10.4,1.1-11.4,1.5s0.9,2.4-0.6,2.5s-0.5-3.1-0.7-4.6s-2.6-1.8-2.3-0.6s-3.7,1.6-4.7,0.7
			c-1.5-1.3-3.3-2.3-5.2-2.8c-2.6-0.7-5.8,2.2-5.1,3.1s2.7,0.2,2.7,0.8c0.1,1.2-5.5,0.7-5.5,1.7s-5.4,2.4-7,2.5
			c-4.4,0.6-5.4,0.6-7.4,2.4s-0.5-1.6,1.1-3.3s3.3-1,4.2-2.3s2.4-1.2,5-1.6s2.4-2,3.6-2.5s4.1-1.8,4.7-3s6.6-3.4,7.8-3.3
			s1.4-2.5,2.1-2.5s4.1-1.6,5.5-2.2c1.1-0.5,1.9-1.6,2.1-2.9c0.1-0.9-1.8-0.8-2-1.6s0.9-0.3,2.3-0.8s0-2.5-1.1-2.2s0.6-1-0.4-2.3
			s-3,0.8-3-0.6s-0.1-3-0.9-3.9s-2.3,1.5-4,0.1s-6.6-2.2-6.6-1.6s-2.3-0.9-2.8-0.3s-4.4,0.5-5.6,0.1s-2.9,0.5-2.9,1.8
			s-4.8,0.8-5.7,0.6s3.3-3.8,3.3-4.4s-7,0.1-7.4-0.6s-3.8-0.9-5.4-0.8s-0.1-0.4,1.3-0.6s2.7-1.4,4.2-1.7s1.2-0.8,0.5-1.8
			s-2.3-0.5-3.8-1c-1.5-0.6-3.1-1-4.7-1.3c-1.3-0.1-2.8,0.7-6,1.3s-3.4,3.2-5,3.9s-4.4,3.9-3.1,4.1s0.7,1.1,0.9,2s-1,1.1-2.5,0.8
			s-7-0.2-6.9,1s3.1,1.8,3,2.4s-2.3-0.1-3.4-0.7s-3.5-0.3-4,0.9s-2.3,0.9-3,0.6s-1.9,0.6-2.9,0.2s2-1.9,1.3-2.7s-4-0.1-4.3,1.2
			s-2.3-0.9-3-0.5c-1,0.6-1.9,1.1-3,1.5c-1.4,0.6-3.8-0.7-4.4,0.4s2.7,1.5,2.8,2s-7.3,0.4-7.5,1.2s-2.7,0.8-5.7,0.8
			s-1.8,1.6-4.2,2.1s-3.5,0.6-4.3,1.8c-0.6,1.1-2,1.4-3.1,0.8c-0.1-0.1-0.3-0.2-0.4-0.3c-0.8-1-3,0.5-1.8,0.6s0.1,1.4-0.7,1.1
			s-2.9,1.3-1.7,1.2s1.8,0.9,1.2,1.7s-3.2-0.9-3.9-0.2s1.3,1.6,2.5,1.5c1-0.1,1.9,0.6,2,1.5v0.1c0.1,0.9-2.8-0.6-3.4,0.2
			s0.5,1.1,1.7,1.3s0.3,0.6,1.5,1.7c0.1,0.1,0.2,0.1,0.2,0.2c0.7,0.9-0.6,1.2-0.5,2s-1.3,1.3-1.3,0.4s-3.5-1.1-4.3-0.2
			s-1.3,1.6-2.1,0.8s-3.4,0.2-6.7,0.4s-10.1,0.4-11.7,1s-3.1,3.1-1.5,4.7s0.1,2.3,0.1,3.4s4,3.2,6.2,3.4s3.9,3,2.6,4.6
			s-5.1-0.5-7.7-2.6s-8.4-3-10.4-2.8s-0.8-1.8-3.3-1.8s-4.6,2.4-2.9,2.4s2.8-0.1,1.9,0.7s0.5,0.6,2.5,1.5s-1.7,2.2-3.8,0.7
			c-1.5-1.1-3.7-0.7-4.8,0.8c0,0.1-0.1,0.1-0.1,0.2c-0.6,1.1,2.4,4.3,6,4.9s2.4,1.8,4.1,2.4s0.5,1.3-0.7,1.4s-3.4-1.8-5.2-2.8
			S222,62.1,221,61s0.7-2.2-0.3-3.1s-0.1-2.7,1.1-4.7s-0.2-5.3-2-5.9s-1.6,1.3-1.2,1.9s0.2,3.2-1.1,5s-5.4,1.8-5.4,3s-2.7,2.1-1.8,3
			s4.6,5.2,5.2,6.5s-3.3,5.6-2.7,8s-0.5,3.6,0.2,4.8s2.4,0.1,3.5,0.6s2.8-0.7,5.3-1.2s7,2.2,8.7,3.1s0.8,2.2,1.7,3.7s-2,1.4-2.1,3.5
			s5,3,5.2,3.7s-3.6,0.1-5.1-0.4s-1.6-2.6-2.1-3s1-2.1,1.1-3.4s-1.7-2.1-2.3-3s-1.7-2.2-2.9-2s-5.6,0.7-7,2s0.2,4.8,0.9,6.6
			s-3.9,4.2-3.8,5.6s-1.4,2-3.4,3.2s-3.2,2-3.9,3.8s-3.1,0.7-4.7,0.3s-2.9,0.2-4.9,0.1c-1.3,0.1-2.7-0.2-3.8-0.9
			c-1.5-0.9-2-2.8-1.1-2.8c1.1,0,2.2,0.2,3.2,0.6c0.9,0.6,1.9,0.9,3,0.9c2,0.1,1.5-0.7,3-0.6s1.5-0.3,1.1-1.1s1.1-1.3,2-1.8
			s0.5-2,1.4-2.5s0.3-1.5,1.2-1.6s1.3-1.5,2.2-1.5s1.3-1.5,0.8-2.2s0.3-2.9,1.2-3.2s0.9-1.1,0.1-1.8s-3.8-2.7-3.6-4.1
			s-0.5-3.8-0.1-4.8s0.1-3.2-0.1-4.5s0.7-2.7,1.1-5s-2.3-4.8-3.7-5.4s-0.5-1.9,1.5-3.6s2.1-7,1.9-8.1s-4.1-2.1-5.6-2
			c-2.9,0.1-5.8-0.1-8.6-0.4c-1.4-0.3-1.8,1.3-2.4,2.7c-1.2,2.1-2.3,4.4-3,6.7c-0.9,3.2-4.4,4.1-6,4.8s-2.6,3-1.9,4.1
			c0.7,1.1,1.8,0.2,2.6,0.6s-0.1,3.4-0.5,3.8s0.9,1.5-0.3,2.2s-2.2,2.4-1.5,3.2s4,1.3,5.4,2.1s0.9,2.4,1.9,3.9s2.2,0.6,2.8,1.5
			s-1.9,4.6-2.8,4.7S184,83,183,82.2s-5.2-2.2-7.3-3.3s-3.8-1-6-2.6s-4.2-2.4-8.4-2.3s-6.8-1-8.2-0.8s-0.9-1.5-3.4-2.6
			s-4.1-2.7-5.5-1.9s-0.9,3.6,1.3,3.9s1.1,1.6,3.4,1.4s2.9,0.7,2.9,2.2s1.1,3,2.1,3.9s0.4,2.6-1.4,2.6s-3.9,0.3-3.1,1.6
			s-0.5,1.7-2.4,1s-0.7-2,0-2.8s-1.6-1.8-2.8-2.2s-5.7,3.1-7,3.7s-4.4-0.8-7.6,0s-3,3.5-4.2,3.2s-4.8,0.4-6.1-0.5s-0.3-1.3,1.1-1.3
			s1.9-0.4,1.1-1.4s1.1-2.5,1-3.2s-5.3,1.1-6.2,1.9s0.1,2.2-0.9,2.7s-0.9-0.8-2-1.3s-8.9,1.5-10.4,3.2s-4.4,1.8-4.4,2.8
			s-3.6,0.9-5,1.6s-0.5,3.6-1,5s-6,1-7.7,1s-2.3-3.4-3.6-3.6s-0.5-2.2-0.1-3s1.5-0.1,3.2-1.3s3.3,0.6,4-0.2s-2.6-2.8-2.8-4.6
			s-3.7-2.3-5.7-1.7c-1.9,0.5-3.9,0.2-5.6-0.6C72.9,82,73,84,75.1,84.5s1,2.2,1.3,3.3s-0.5,3.4-1.8,5.3s-0.3,1.8,1.5,1.7
			s1.7,2.4,1.7,4.2s-1.4,2.3-1.4,3.7s-1.5-0.6-1.9-0.1s-1.1-0.3-1.3-1.4s-3-0.5-4.6-0.9s-2.2,0.3-2.9,1.5s-2.9,1.7-4,1.8
			s-3.2,2.5-4.3,3.3s-1.4,2.4,0.3,4.1s2,2.8,1.9,3.7s-4.7,0.6-5.4-0.3s-3.7-1.3-4.7-1.1s-3.8-3.2-5.2-3.2s-2.3,1.8-2.8,2.7
			s0.7,1.2,1.3,2.7s3.2,1.6,4.4,1.6s0.8,2,0.4,2.9s-2.7,1.5-3.4,0.6s-3.5,0-3.6-1.1s-2.1-2.8-4.2-2.4s-2.5-1.1-2.3-2.7
			S33,111.7,33,111s-0.9-2.3,0.1-3.1s0.3-2,0.3-3s-1.8-2.7-3.5-2.7s-1.3-1.8-2.7-2.1s-4.2-2.8-4.4-3.9s-2.3-1.2-1.6-1.5
			s2.4,0.1,3.6,1.4c1.7,1.6,3.9,2.6,6.3,2.8c3.2,0.4,4.4,2,7.9,2.6s5.6,1,10.6,1.8s11.7-4.6,13.1-6c1.4-1.4-0.4-4.5-0.4-5.6
			s-2.3-1.3-2.6-2.1c-0.7-1.4-2.2-2.3-3.8-2.4c-1.9,0-2.2-2.3-3.8-2.2s-2.6-0.7-6.6-3.5s-9.6-4.9-10.6-4.5s-1.7,0.8-2.3-0.3
			s-2.2-0.9-3.3-0.1s-2.1-0.8-4.2-0.3s-3.1-0.9-2.5-1.5s3.5-0.1,3.4-1.1s-1.2,0-3-1.3S20.2,72,19.8,73S18,73.8,17,72.9
			c-0.1-0.1-0.2-0.2-0.3-0.2c-0.3,1.8-1.3,1.9-2.3,1.7c-1.2-0.3-2.4,1.8-3.8,1.8S8,77.8,7.7,79.1S6,79.6,6,80.5
			c0.1,0.9-0.1,1.8-0.7,2.5c-0.7,0.8,0,1.3,0.7,2.7s2.1,1.3,2.8,1.7S12,90,12,90.9s-2,2.9-2.8,3.5s-1.9,2-1.3,2.8s2.8,4.3,4.3,7.2
			s-0.5,1.5-1.5,2.8s0.4,2.8,0.7,3.7s-1.2,0.7-1.1,1.4s2.1,1,2.3,1.6s-1.3,1.3-0.7,2.4s2.3,1.1,2.4,2.5s-2.9,1.6-2.8,2.7
			s4,2.5,5.8,4.6s1.6,2.7,1.2,3.8c-0.8,2.3-5.6,4.2-6.7,6.7s-5.1,3.9-7,5.9c-0.8,0.9-1.5,1.9-2.2,2.9c0.7-0.2,1.3-0.4,1.9-0.7
			c1.1-0.6,1.7,1.9,2.7,2.8s4.1,0.1,4.3,1.3c0.1,1-1.2,0.7-2.5,0.9c-1.5,0.1-2.9,0.5-4.2,1.2c-0.8,0.5-1.6,1.1-2.2,1.8
			c1.1,1.6-0.4,1.9-0.9,3.1s-1.4,1.6-1.5,2.4c0,0.9,0.1,1.8,0.3,2.7c0,0.9,0.4,1.8,1,2.5c0.7,1-0.6,1-1.2,1.6s-0.2,1.7,0.6,2.5
			c0.7,0.7,0.9,1.7,0.5,2.6c-0.3,0.7,0.7,2,1.4,2.7s0.6,2.7,1.2,3.3c0.6,0.7,1.5,1,2.4,0.7s2,0.2,2.3,1.1c0.5,1,1.3,0.5,2.4,0
			s3.6,1,4.2,1.3s0.3,2.1,0.4,3.3s-0.6,2.6,0.5,3.4s0.8,2.4,2.1,2.9s1.8,2.4,2.6,2.6c1.1,0.5,2.1,1.4,2.5,2.5
			c0.2,0.9-1.4,1.8-2.3,2.2s-2.6-1.3-3.2-0.5s0.2,2.1,0.7,4.4s0.9,2.5,1.9,2.5s1.4-0.7,2.1-1.2s2.3,0.2,3-0.1s3.2-0.4,3.7,0.4
			s1,2.8,0.6,3.6s0.5,1.6,1,2.6s2.6,0.5,3.3,0.9s2.3,2.6,2,3.7s1,1.3,1.7,1s1.4,0.5,2.2,1.1c0.7,0.5,1.7,0.4,2.3-0.2
			c0.8-0.5,2.1-0.9,2.5-0.2s2,2.1,2,2.5s2.5,0,3.7,0.6s2.5,0.3,3.8,1.1s2.5,0.8,2.6,1.7s-1.3,1.6-1.3,2s1.1,0.7,1.1,1.4
			s-1.4,0.6-1.6,1.2s0.8,1.3,1,1.8s-0.8,2.3-0.8,2.9s-3-0.1-3.7-0.1s-2.8,2.4-3.5,2.5s-0.3,1.2-0.1,2.2c2.2-0.4,4.4-0.6,4.6-0.1
			c0.4,0.8-4.7,3.1-5.6,3.4s1.8,1.8,1.7,2.7s-3,1-2.7,2.7s-0.9,2-2.5,2s-1.9,1-1.2,1.1s0.7,2.2,3.6,3s6,3.6,8.4,6.4
			c0.3,0.4,0.7,0.7,1.2,1c0.5-0.4,1.1-0.7,1.7-0.8c1.9-0.1,3.9,0.5,5.5,1.6c1.4,1.1,6.4-0.2,7,0.6c0.6,1,1.7,1.7,2.8,1.9
			c1,0,2,2.1,2.8,1.5s3.8-0.6,4.6-0.6s0.8,0.6,1.6,0.6s0.8,3.2,1.4,3s2.8,1.9,4.2,2.1s2.8,2.7,3.4,2.5s1.6,1,2,0s2.4-0.5,2.9-2.2
			c-2.6-3.3-5.3-6.9-5.2-8.3c0.1-2.4,1.1-3.9-1.7-6.5s0.3-4.2,2.3-6.9c1.8-2.4,5.6-3.4,8-5.1c-0.5-0.4-1-0.7-1.5-0.9
			c-1.8-0.8-2.4-1.7-1-2.1s0.8-1.3-0.6-2.9s-2-3.4-2.8-3.4c-1.1-0.1-2.2-0.1-3.2,0.2c-1.2,0.4-1-1-0.8-2.5s-2.2-1.3-2.6-1.9
			s0.6-2.7,1-2.9s1.6-0.9,1.6-1.5s-2.2-0.8-1.4-2.3s2.4-1.5,2.4-2.9s1.2-2.7,2.6-1.7s2,3.8,3.6,3.2s0.6-2.1,0.4-2.9
			s-0.6-2.1,1.2-2.5s1-2.3,2.4-2.3s4-1.9,4.8-2.3s2.6-1.5,3.4-1.1s1.8,1.5,2.4,0s3-0.8,3.2,0s4,0.9,5.2,1.7s3.8,2.5,3.8,3.4
			s1.2,2.1,1.2,0.6s1-1.1,2.6,0s3.8,0.6,4.2-0.4s3.4-2.3,4.4-1.5s1.4,1.5,2.6,0.2s4-1.1,4.4,0.2s1.8,1.5,3,1.5s1.4,1.9,2.2,1.5
			s0.6-2.5,1.6-2.3s1.8,1.5,3.4,1.5s2.8-0.4,2.8-1.7s-0.2-3.4-1.2-3.4s-2-1-3.2-1s-2.4-2.1-1.2-2.5s3.2-1.5,2.8-2.5
			s-0.8-3.2,0.8-3.4s5-0.2,4.8-0.8s-3.4-1.1-4-2.1s-0.8-3.6-0.2-4s2.6,0.2,3.8-0.2s3.8,0.6,5.4-0.6s5-1.5,6.8-1.5s3.2-1.3,4.6-1.5
			c2.2-0.3,4.3-0.7,6.4-1.3c1-0.4,6.4-1.3,6.6-2.3s4.5-1.9,5.6-1.4c1.1,0.6,2.3,0.8,3.5,0.5c1-0.4,3.1,0.7,2.9,1.9s0.9,2.4,0.8,3.4
			s-1.1,1.3-0.5,2s3.3,0.2,4.1-0.7s1.7,0.4,1.7,1.2s1.3,1.3,1.3,0.3s1.6-0.3,2.1,0.3s2.4-0.7,2.4,0.3s-2.8,1.9-1.6,3
			s1.9-1.4,3.4-0.8s3.5-1.8,4.9-2.1s2.9-1.7,4.1-2.4s3.8-0.5,3,0.3s-1.7,2.4,1.3,3.6s6.4,7.3,8.3,10.3s3.7,8.5,4.7,8.5
			s1.3-2.7,2.6-3.1s2.1,2.3,3.5,2.6s3.3,1.2,4.4,0.7s3.6-1.9,4.5-1.4s2.1,0.5,2.9,2.5s2,2.4,2.8,2.4s1,1,1,1.8s1.5,2,2.3,2
			c1.2,0,2.5-0.3,3.6-0.7c0.7-0.4,1.5-0.8,1.6,0.1s1.3,2.5,2.1,2.5s2.4,0.7,2.5,0s2.3-1.1,3.1-1.3s3.6-0.7,4.1-2s2.8-1.3,3.5-2.1
			s2.5-1.3,2.9-2.1s2.8-0.7,3.1-1.4s2.3-0.9,3.2-0.6c2.1,0.6,4.2,0.9,6.3,1.1c0.7-0.1,0.8,2.5,1.5,2.7s3.1,2.1,3.8,1.6
			c1-0.8,2.5-0.9,3.6-0.3c1.3,0.8,2.7,2,3.2,1s3.4-1.4,3.8-2s0.8-2.2,0.1-2.8s-1.3-2.8-1.6-3.9s1.6-1.4,1.9-2.4s1.9-1.1,2.4-1.7
			s0.7-1.8,1.6-1.5c1.2,0.3,2.3,0.8,3.3,1.4c0.9,0.5,1.8,0.7,2.8,0.7c1.2,0.2,2.3,0.7,3.4,1.4c0.9,0.6,3.9,0.6,4.4,1.4
			s-0.1,3.2,0.5,4.1s2.3,2.7,2.8,2.2s3.1,1.4,4,1.3s2.4-1.7,3.2-1.7s3.4-0.7,4.1-0.6s3.8,1.3,4.1,1s3.1,0.1,3.5,1s3.8,0.8,3.8,1.8
			s1.9,1.6,2.4,2.7s5,0.4,5.8,1.1s5.9,0.6,6,0s5-0.9,5.9-1.6s3.5-0.4,3.6-1.4s2.5-1.7,3.6-2.5s5.4-0.7,5.6,0.3s2.8,1.3,3.9,0.8
			s3.9,0.1,4.3,1.1s3.6,1.6,4.4,1.3s3.4-2.2,4.3-2.4s2.3-1.1,2-2.1s1.9-3.8,2.1-4.9s2.1-4.2,2.8-4.5s2.1-1.5,2-2.4s-0.5-3.4-1.3-3.4
			s-2.3,0.1-0.4-2.5s5.2-2,5.8-2s4.8-1.1,6.7-0.6s3.1-0.3,5.1,0.8s4.8,0.7,5.5,1.7s3.4,1.8,2.9,3.5s1.5,0.7,2.1,4.4s2.3,3.9,2.7,5.6
			s2.5,4.8,2.3,5.8s-0.5,2.5,1.7,2.7s3.9,2,4.4,1.7s3.2,0.7,4.5,2.1s3.4,0.7,3.2,2.2s1.1,2.8,0.9,4.1s2.5,2.1,4.4,1.8s3.2,0.7,4-1
			s3.5-1,4.4-1.7s3.8-1.6,3.6,1s1.5,3.1,0.1,3.9s-2,4.5-2.4,6s-2.4,2-2.7,3.6s-2.1,1.8-2.1,3.1s-2.7,1-4,0s-2.7,1.8-3.8,1.8
			s-0.9,2.4-0.7,3.4s-0.4,2.2,0.3,3.9c0.4,0.9,0.1,2.6,0.3,4.5c1.6-1.2,3.1-2.1,3.8-2.1c1.7,0,3.4,3,5.2,3.1s10.4-5.9,10.5-6.9
			s5-6,7.4-8.6s5.4-6.4,6.6-9.3c0.7-1.8,4-5.3,4.8-6.7c1.1-1.5,2-3.1,2.8-4.9c1.5-3.3,1.5-11.9,2-12.5s0.2-2,0.9-2.9
			c0.7-0.9,0.3-2.2,1.7-3.4c1-0.7,1.3-2,0.8-3.1c-0.3-0.9,0.1-2.9-0.3-3.6s-0.3-0.9,0.5-1.4s-0.5-1.8-1.7-2.3s-2.6-1-2.7-2.4
			c-0.4-1.6-1.9-2.7-3.6-2.8c-1.5,0.1-4.2-0.8-3.9,0.1s-0.1,1.8-0.9,1.6s-1.1,0.4-1.9,1.8s-4,1.5-2.5,0.2s-0.5-1.4-0.2-2.8
			s1.4-2.8-0.1-1.9s-1.5,3.1-2.8,3.4s-0.9-3.8-0.5-4.9s-2.3,0.1-5.1-0.1s-2.1-2.2,0.2-3.5s1.9-2.5,3-2.9s4.1-2.5,5.8-3.6
			c1.3-0.7,2.2-2,2.5-3.4c0.4-1.2,3.6-2.7,6.5-5.1s4.3-3.9,5-5.3s5-3.3,5-4.4s5.1-3.9,8.5-4.6s8.8,0.2,9.8,1.3
			c0.4,0.6,1.2,0.8,1.9,0.4c0.2-0.1,0.4-0.3,0.5-0.5c0.6-0.7,1.9-0.4,4.2-0.1s2.8-1.1,4.3-0.6s2.8,0.8,3.8-1.1s5.4-1.5,6.4-0.8
			s1.8,1.8,3.4,0.7s1.6,1.5,3.1,1.7s0.5,1.6-0.8,1.5s-3,0.7-1.5,1.6s3.3-0.8,4.5-0.7c1.6,0.3,3.3,0,4.8-0.9c1.7-1.1,2.1,0.9,3.2-0.1
			s3.5-1.3,4.7-1.2s0.2-1.5-1.8-1.5s-2-1.1-0.3-4s4.7-4.4,6.6-6.2s3.3-0.9,3.3-2s0.9-4.3,2.4-4.3s5.2,0.6,7.4-0.7s2.1,1,3,1.3
			s2.2-2,3.3-1.3s-1.6,2.4-2.2,4.4s1.4,1.3,2.5,1.8s-1.5,1.4-1.2,2s2.5,0.6,5.5-2.5s5.6-3.9,7.5-3.7s0.8-1.8,0.9-4.6
			s5.9-3.7,7.8-2.9s1.7,1.6-0.1,1.1s-3.5,1.2-3.4,3.6s-1.6,3.2-0.7,4.1s-1.3,1.1-1.3,2.1s0,1.8-1.3,2.2s-5.8,0.9-6,2.7
			s-2.5,2-3.7,4.3s-5.5,3.6-8.4,8.1s-7.4,4.5-7.4,5.3s-3.2,0.8-4.2,0.9s1,2.9-1.5,5.8c-2.6,3-4.1,6.8-4.1,10.8
			c0.1,4,1.3,15.5,2.5,17.6s0.5,7,1.4,8.1s0.6,2.8,1.2,3.4s3.1-2.8,4.8-4.3s1.1-2,2.3-2.7s0.7-4,1-4.8s2.4-1.3,3.1-2.2
			s2.4-0.4,3.3-0.7s-0.1-2.7-0.4-4s2.7-3.2,4.3-4.4s3.6,0.8,5.4-1s-0.1-3.8-0.8-4.7s1.8-5.3,3.2-5.8s2.1,1.1,3.5-0.2
			s-1.2-3.3-2.1-3.1s-1.3-3.6,0.9-5.3s1.3-2.1-0.1-2.5s-1.7,0.1-2.9,0.2s-2.3-2.5-0.5-4.9s3.4-2.2,3.8-4.2s2.8-4.9,3.4-6s3,0,4-0.2
			s0.6,1.9,1.7,0.8s3-4.6,4.5-4.6s0.5,2.6,0.9,4.1s1.3-0.4,4.2-2.5s9.4-1.9,11.3-0.9s2.3,3.3,3.3,3c1.6-0.4,0.3-2.3,1.9-2.8
			c2.4-1,4.6-2.3,6.6-3.9c2.2-1.6,1.5-0.4,2.7-1.9s2.3-0.8,2.6-1.8s3.4-2.6,7.6-3.6s9.7-3.9,9.5-4.8s1.6-1.3,1.8-0.4s1.8,0.6,4,1.1
			s3.2,1.4,5-0.4s-0.2-2.5-0.1-3.9s-3-2.9-2.6-4.4s-2.3-5.4-3.1-4.6s-2.7-0.6-2.7-1.8s-0.1-2.5-1.4-1.6s-3.4,0.4-3.8-0.8
			s2.5-2.2,4.5-1.3s1.4,1.7,2.4,2.3s3.8,0.3,5.2-0.3s5.4-2,6-3.2s-0.1-1.8,1.3-2.5s0.3-2.2-0.8-2.8s-0.9-2.3,0.3-2.3
			s0.9-1.5,1.7-1.5s0.9,0.6,2.4-0.1s0.1,1.2-0.6,2.5s1.4,2.4,1.6,3.2s3.1,1,4.7,0.1s6.8,1.1,7.1,2.5c0.4,1.8,1.6,3.3,3.2,4.1
			c2.1,1.1,4.1,0.6,4.5,1.7c0.3,1,1.3,1.6,2.3,1.4c0,0,0,0,0.1,0c1.2-0.3,1.9,1.1,2.7,0.3s1.3,0.5,2.5-0.6s-2.5-1.8-2-2.6
			s1.2,0.6,2.2,0.6s-0.3-2.1,0.5-2.3s0.1-4.4-0.7-4.7s-0.1-1.8,1.4-0.6s4,1.1,5.1,1.1s0.1-1.1-1.1-1.3s0.2-1.2,1-0.4
			s2.3,1.1,2.5,0.3s0.9-2.7,2.3-2.6S739.2,105.4,737.8,105L737.8,105z"/>
	</g>
</g>
</svg>
