<?xml version="1.0" encoding="utf-8"?>
<!-- Generator: Adobe Illustrator 25.3.1, SVG Export Plug-In . SVG Version: 6.00 Build 0)  -->
<svg version="1.1" id="图层_1" xmlns="http://www.w3.org/2000/svg" xmlns:xlink="http://www.w3.org/1999/xlink" x="0px" y="0px"
	 viewBox="0 0 841.9 595.3" style="enable-background:new 0 0 841.9 595.3;" xml:space="preserve">
<style type="text/css">
	.st0{fill:none;stroke:#0D0D0F;stroke-width:4;stroke-miterlimit:10;}
	.st1{fill:none;stroke:#000000;stroke-width:2;stroke-miterlimit:10;}
	.st2{fill:none;}
	.st3{font-family:'PTMono-Regular';}
	.st4{font-size:47px;}
</style>
<path class="st0" d="M580.2,199.2c51.3,0,97.9,41.6,97.9,92.9S631.5,385,580.2,385h-285c-51.3,0-97.9-41.6-97.9-92.9
	s46.6-92.9,97.9-92.9L580.2,199.2L580.2,199.2z"/>
<path class="st1" d="M559.6,212.7c43.8,0,83.3,35.5,83.3,79.3s-39.5,79.3-83.3,79.3H316.2c-43.8,0-83.3-35.5-83.3-79.3
	s39.5-79.3,83.3-79.3H559.6z"/>
<rect x="288.1" y="237.4" class="st2" width="333.1" height="154.6"/>
<text transform="matrix(1 0 0 1 288.0872 277.3194)" class="st3 st4">start</text>
<text transform="matrix(1 0 0 1 288.0872 333.7194)" class="st3 st4">exploration</text>
</svg>
