<?xml version="1.0" encoding="utf-8"?>
<!-- Generator: Adobe Illustrator 25.3.1, SVG Export Plug-In . SVG Version: 6.00 Build 0)  -->
<svg version="1.1" id="图层_1" xmlns="http://www.w3.org/2000/svg" xmlns:xlink="http://www.w3.org/1999/xlink" x="0px" y="0px"
	 viewBox="0 0 500.5 198.5" style="enable-background:new 0 0 500.5 198.5;" xml:space="preserve">
<style type="text/css">
	.st0{fill:none;stroke:#0D0D0F;stroke-width:4;stroke-miterlimit:10;}
	.st1{fill:none;stroke:#000000;stroke-width:2;stroke-miterlimit:10;}
	.st2{fill:none;}
	.st3{font-family:'PTMono-Regular';}
	.st4{font-size:47px;}
</style>
<path class="st0" d="M392.2,6.3c51.3,0,97.9,41.6,97.9,92.9s-46.6,92.9-97.9,92.9H107.3c-51.3,0-97.9-41.6-97.9-92.9
	S56,6.3,107.3,6.3H392.2z"/>
<path class="st1" d="M371.6,19.9c43.8,0,83.3,35.5,83.3,79.3s-39.5,79.3-83.3,79.3H128.3C84.5,178.5,45,143,45,99.2
	s39.5-79.3,83.3-79.3H371.6z"/>
<rect x="100.1" y="44.5" class="st2" width="333.1" height="154.6"/>
<text transform="matrix(1 0 0 1 100.1367 84.47)" class="st3 st4">book </text>
<text transform="matrix(1 0 0 1 100.1367 140.87)" class="st3 st4">exploration</text>
</svg>
