<?xml version="1.0" encoding="utf-8"?>
<!-- Generator: Adobe Illustrator 25.3.1, SVG Export Plug-In . SVG Version: 6.00 Build 0)  -->
<svg version="1.1" id="图层_1" xmlns="http://www.w3.org/2000/svg" xmlns:xlink="http://www.w3.org/1999/xlink" x="0px" y="0px"
	 viewBox="0 0 55 48.5" style="enable-background:new 0 0 55 48.5;" xml:space="preserve">
<style type="text/css">
	.st0{fill:none;}
</style>
<g id="图层_2_1_">
	<g id="fr">
		<path class="st0" d="M53.5,12.3c-0.6,0.1-1-0.8-2.2-0.8c-1.1,0-2.1-0.5-2.7-1.4c-0.6-0.8-3.5-1-4.4-0.8S43,7.7,42.1,7.9
			s-1.2-1.3-1.2-2s-1,0.6-1.9,1S37.9,6,37.8,5.4S36,4.2,35.2,3.7s-1.8-2-2.1-1.4s-1.4-1-1.5-1.6c-0.1-0.4-0.4-0.3-0.6-0.6
			c-0.3,0.1-0.6,0.1-1,0.1c-1.5-0.1-2.8,1.2-2.5,3.8s-1.8,2.8-4.4,3s-1.7,2.3-2.7,3.1s-4.8-0.4-5.3-1.9s-3.9,0-2.4,1.7
			s1.4,4,0.6,4.7s-2.6-1-3.7-0.2s-1.2-0.8-2.5-1.3S5.2,13.7,3,13.5s-3.4,1.1-2.6,2.1s-0.1,1.9,0.5,2.7s3.5,0.7,5.6,1.9
			s2.6,0.2,3.7,1s1.3,0.3,1.4,1.9c0.1,1.9,1.5,3.4,3.3,3.8c2,0.6,0.5,2,1.1,3.4c0.6,1.4-0.9,3.5-0.6,5.2s-1,7.4-2,7.9
			c-0.1,0-0.2,0-0.2,0c0.9,0.5,1.9,0.9,2.4,1.2c0.9,0.6,2.9,1.3,4.1,2s3.3,0.6,3.3-0.3s1.2-0.3,2,0.5s3.6,1,5,1.3
			c1.4,0.2,2.9,0.2,4.3,0.1c-0.1-0.3-0.1-0.7-0.2-1.1c-0.8-2.5,1.4-4,3.5-4.3s6.5,1,7.7,1.8s2.8,0.6,4.8-1.7
			c0.7-0.8,1.6-1.4,2.6-1.8c0.1-0.5,0.3-1,0.5-1.5c0.3-0.8-1-0.6-2-0.7c-0.7-0.1-1.3-0.7-1.2-1.4c0-0.3,0.1-0.5,0.3-0.7
			c0.7-1.1-0.6-1.2-1.2-2.2s0.3-0.8,0.8-1.1s1.3-1.5,0.8-1.8s-0.8-1-0.5-2.1s-0.7-1.3-0.7-2.1s-1-1.3-1.9-0.2s-1.1,0.3-0.6-1.5
			s2.5-2.5,2.7-3.5c0.3-1,1.1-1.7,2.1-1.8c0.8,0,0.7-2,0.9-3.3c0.1-1.4,0.7-2.6,1.7-3.6C55.6,12.6,54.1,12.2,53.5,12.3L53.5,12.3z"
			/>
	</g>
</g>
</svg>
