<?xml version="1.0" encoding="utf-8"?>
<!-- Generator: Adobe Illustrator 25.3.1, SVG Export Plug-In . SVG Version: 6.00 Build 0)  -->
<svg version="1.1" id="图层_1" xmlns="http://www.w3.org/2000/svg" xmlns:xlink="http://www.w3.org/1999/xlink" x="0px" y="0px"
	 viewBox="0 0 48.2 48.5" style="enable-background:new 0 0 48.2 48.5;" xml:space="preserve">
<style type="text/css">
	.st0{fill:none;}
</style>
<g id="图层_2_1_">
	<g id="it">
		<path class="st0" d="M39.7,31L39.7,31c-1.6-1-0.6-2.7-3.1-2.6s-5.6-3.2-6.5-7s-4.9-4-5.9-6.3s0.9-2.5,0.1-4.4
			c-0.5-1,0.6-2,1.9-2.5c-0.1-1.9,0-3.9,0.2-5.8c-0.7,0-1.5-0.2-2.1-0.4c-0.5-0.3-0.6-1.9-0.8-1.9s-2.9,0-3.4,0.5S18.1,2,17.4,1.5
			c-0.2-0.1-0.3-0.2-0.5-0.3L16.1,2c0,0-0.1,1-0.6,1s-1.2-0.4-1.2,0.5s-1.4,0.6-2,0.5s-1.5,0.1-1.5,0.9s-0.1,2.5-1.1,1.6
			s-2-3.2-2.4-3S6,6.6,5.1,6.6c-0.5,0-2.3,0.2-3.6,0.3C1.2,7.6,1.4,8.5,2,9c0.5,0.3-0.3,1.4-0.8,1.7s-1.5,0-0.8,1.1s1.9,1.1,1.2,2.2
			c-0.4,0.6-0.3,1.4,0.2,1.9C2,16,2.2,16.1,2.5,16.1c0.9,0.1,2.2-0.1,2,0.7c-0.2,0.5-0.4,1-0.5,1.5c0.7-0.1,1.4-0.3,2-0.6
			c1.3-0.7,0.8-1.9,2.9-2.6s5,1.2,5.9,2.6s1.1,1.5,1.3,2.6c0.2,1.1,1,3.3,4,5.3s4.2,4.3,5.7,5.1s3.1,0.6,4,1.8c1,1.1,2.3,2,3.7,2.5
			c1.5,0.7,1.5,2.4,3,2.6s0.5,1.5,1.4,2.6c1,1.4,1,3.3,0.1,4.8c-0.9,1.3-0.4,3.5,0.2,3.5s1.9-2.3,2.1-3.6s1.4-1.2,2.4-2.6
			s-1.5-1.7-1.9-3.4s1.9-3.3,4-1.9s3,2.4,3.2,0.2S41.3,32,39.7,31z"/>
	</g>
</g>
</svg>
