<?xml version="1.0" encoding="utf-8"?>
<!-- Generator: Adobe Illustrator 25.3.1, SVG Export Plug-In . SVG Version: 6.00 Build 0)  -->
<svg version="1.1" id="图层_1" xmlns="http://www.w3.org/2000/svg" xmlns:xlink="http://www.w3.org/1999/xlink" x="0px" y="0px"
	 viewBox="0 0 215.8 112.9" style="enable-background:new 0 0 215.8 112.9;" xml:space="preserve">
<style type="text/css">
	.st0{opacity:0.7;}
	.st1{fill:#921D22;}
</style>
<g id="图层_2_1_">
	<g id="US" class="st0">
		<path class="st1" d="M212.7,11.4L212.7,11.4c-0.1-1.2-3.4-0.2-4.9-1.5s-4.2,4.6-4.7,7s-4.6,5.1-4.6,5.1l-12.8,0.1
			c-0.7,0-3.4,2.5-5,4c0.1,0.1,0.1,0.1,0.1,0.2c1.2,2.3-3.1,3.7-7.3,3.9c-1,0-2,0.1-3,0.3c0.2,0.5,0.2,1,0.2,1.6
			c0,0.3-0.5,0.6-1.1,1c-0.6,1.4-5.7,4-8.5,5.6c-3.1,1.8-7.4,0.9-7.4-1.8s2.3-2.1,2.8-0.9c0.2,0.5,0.7,0.1,1.5-0.5
			c-0.7-0.9-0.9-2-0.6-3.1c-0.9-0.4,0.5-4.4-1.4-5s-4.3,3-4,0.7s3.3-4.2,1.5-7.2s-5.1-3-5.8-0.7s-3,1.2-3.8,3
			c-1.1,2.7-1.5,5.6-1,8.4c0.7,2.8-0.2,4.2-2.6,5.8s-3.8-2.4-2.8-7.5c0.7-3.5,2.5-6.8,0.8-6.8s2.2-4.3,5.7-5.1s7.8-0.5,7.8-1.6
			c0-0.2,0.2-0.4,0.4-0.4c-0.7-0.6-1.4-1.1-2.1-1.6c-0.1,0.2-0.2,0.5-0.4,0.6c-1.4,1-1-1.6-3.5-1.6s-4.9,2.4-6.9,1.4s-1-2.5-2.8-2.5
			s1.3-3.7-1.3-2.1s-6.6,5.4-8.4,3.7s-3.5,0.5-4.8-0.9s4.6-5.2,7.4-5.1c0.7,0,1.4-0.3,1.9-0.8c-1.5-0.6-4.5-1.8-5.3-0.8
			c-1,1.3-2.4,0.5-3.2-0.6S121,6,119.7,4.4s-2.6-0.5-3.4-0.1s-1.8-0.6-3.2-1.2s-0.3-2.1-1.5-3S110.2,2,110.2,2L7.7,2.5
			C7.8,2.7,7.9,2.9,8.1,3c1.2,1.4,0.2,2.5,0.7,4.1s0.1,4-1.2,4c-0.6,0-1.1-0.5-1.1-1c0-0.4,0.2-0.8,0.6-1C8,8.7,7.5,6.7,6.6,6.7
			C6.1,6.7,5.8,6,5.9,5.3c-2,0.4-4,0.4-5.9,0c0,0.1,0.1,0.2,0.1,0.3C0.3,7.5,0.9,9.3,2,10.9c1.3,1.8,0.4,3,1.7,3.7s1.2,1.5,0,1.3
			s-0.3,1-0.7,3.6s-0.3,8-0.6,9.7s-2.1,4.4-1,6.1c1.2,1.9,1.7,4.2,1.2,6.4C2,43.4,2.1,45.3,3,46.9c0.9,1.7,0.2,4.5,1.2,5.2
			C5.4,53,6.3,54.2,7,55.5C7.9,57,8.7,56,8.9,57.6s0.2,1.8,1.5,2.5s0.5,2.2,0.5,3.1c0,0.9,1.7,2.4,3.9,4.5s0.3,3.7,1.9,3.7
			s3,1,4.6,2s2.1,0.4,3.1,0.7s3,2.7,3.5,4.4c0.2,0.9,0.5,1.7,0.8,2.5l8.5-1.2c1.3,1,2.6,1.7,4.1,2.3c1.5,0.4,9.6,3.6,9.6,3.6
			l10.6-0.1l1.2-1.7h5.8c1.3,1.4,2.7,2.8,4.2,4c0.5,0.2,2.4,2,2.4,3.1c-0.1,1,0.4,2,1.3,2.5s3.9,2.5,4.3,2.3s1.3-3.7,2.9-3.7
			s5.9,1.4,6.6,4c0.7,2.1,1.9,3.9,3.5,5.3c0.7,0.6,0.3,2.2,0.9,3s0.4,2.4,1,2.4s3.8,2.1,5.2,2c0.6,0,1.1,0.3,1.6,0.6
			c0.2-3.1-2.9-3.7-1.1-5.1c2.1-1.7-0.1-3.1,0.9-3.8s2.7-1.4,2.7-2.4s0.9-1,2.2-0.9s3.8-2.3,3.6-3.2s0.2-1.1,1.8-0.8
			s1.3-1.9,2.3-1.6s1.8,1,1.9,0.2s1.1-0.6,1.8,0.4s2.9,1.3,3,0.1s1.4,0,2.5,1.2s1.6,0.9,3.1,1c1.6,0.1,1.6-0.3,1.6-1.4
			s1.7,2.3,3.3,2.4s0.3-1-0.8-2s0.2-1.4-0.7-2.2s1.2-1.8,3.2-1.8s1.9,0.6,2.6-0.6s1.5,0,1.5,1s3.2-0.6,5-0.6c1.6,0.1,3,1.1,3.5,2.6
			c0.2,1.1,1.3,1.6,2.6,0.4s2.3-2.5,3.5-1.2s2.3,2.9,3.7,4.4s-0.7,3.3,0.1,4.5s-0.1,2.7,1.6,3.9s0.2,3.8,1.5,4.1s2.4,2.5,2.6,3.4
			s2.6,2,2.8,0.5s1.5-3.2,1.6-4.6c-0.1-2.8-0.8-5.5-2.1-8c-1.1-1.6,0.2-1.9-1.1-3.8c-1.4-2.3-2.1-5-2.1-7.7c0.1-2.6,3-6.9,4.4-8.2
			s3-0.6,3.3-2s2.1-3.2,3-3.2s2.1,0.3,2.2-0.9s1.8-2.5,4-2.9s0.9-1.6,0.3-2.6s0.5-2.1,0.9-1.4c0.7,0.7,1.8,0.8,2.6,0.2
			c0.8-0.6,2.7-2.3,0.9-2.4s-2.2-0.9-1.1-1.3s0.2-2.5-1.3-2.7s-1-1-0.1-1.9s-1.3-2.5-2.4-3.3s0.6-1.1,1.2-1.7c0.8-1,0.4-3.9,0.9-4.8
			s1.8-1,1.2,0c-0.8,1.2-0.8,2.7-0.1,3.9c0.9,1.4,1.2,3.1,0.8,4.7c-0.4,2,0.4,1.5,1.6-1.1s1.4-4.9,0.6-5.2s-0.7-2.9,0.2-1.7
			s1.2,1.4,2.6-0.2s2.9-4.3,2-4.9s0.4-1.2,2.1-1.1s5.2-1,5.4-1.6c0.8-1.7-5.7,0.8-5.7-0.2s4.1-1.9,6-2s1-2.8,1.8-1.7s2.1,1,3.1,0.3
			s0.2-2.7-1-3.1s0.9-1.2,0.5-2s0.8-3.9,2.4-4.3s0.8-1.4,2.1-1.4s1.6-1.7,2.7-2.9s2.8,1.9,4.6,0.2c0.9-0.8,1.8-1.5,2.8-2.2
			C211.5,16.5,212.8,12.5,212.7,11.4L212.7,11.4z"/>
	</g>
</g>
</svg>
